<svg xmlns="http://www.w3.org/2000/svg" viewBox="0 0 64 64" width="64" height="64">
  <defs>
    <filter id="ds" x="-20%" y="-20%" width="140%" height="140%">
      <feDropShadow dx="0" dy="2" stdDeviation="0" flood-color="#1a1d2e" flood-opacity="0.6"></feDropShadow>
    </filter>
  </defs>
  <g filter="url(#ds)">
    
    <path d="M22 14 C 22 8, 42 8, 42 14 L 42 22 L 22 22 Z" fill="none" stroke="#1a1d2e" stroke-width="3" stroke-linejoin="round"></path>
    
    <path d="M14 22 L50 22 C 52 22, 54 24, 54 28 L 54 52 C 54 55, 52 56, 50 56 L14 56 C 12 56, 10 55, 10 52 L 10 28 C 10 24, 12 22, 14 22 Z" fill="#4ecdc4" stroke="#1a1d2e" stroke-width="3" stroke-linejoin="round"></path>
    
    <path d="M18 34 L46 34 C 47 34, 48 35, 48 36 L 48 48 C 48 49, 47 50, 46 50 L18 50 C 17 50, 16 49, 16 48 L 16 36 C 16 35, 17 34, 18 34 Z" fill="#2ea29a" stroke="#1a1d2e" stroke-width="2.5" stroke-linejoin="round"></path>
    
    <rect x="28" y="40" width="8" height="4" rx="1" fill="#ffd23f" stroke="#1a1d2e" stroke-width="2"></rect>
  </g>
</svg>