<svg xmlns="http://www.w3.org/2000/svg" viewBox="0 0 64 64" width="64" height="64">
  <defs>
    <filter id="ds" x="-20%" y="-20%" width="140%" height="140%">
      <feDropShadow dx="0" dy="2" stdDeviation="0" flood-color="#1a1d2e" flood-opacity="0.6"></feDropShadow>
    </filter>
  </defs>
  <g filter="url(#ds)">
    
    <rect x="10" y="14" width="44" height="44" rx="6" fill="#ff6b6b" stroke="#1a1d2e" stroke-width="3"></rect>
    
    <rect x="14" y="18" width="36" height="36" rx="3" fill="#fff" stroke="#1a1d2e" stroke-width="2.5"></rect>
    
    <rect x="24" y="8" width="16" height="10" rx="3" fill="#c94545" stroke="#1a1d2e" stroke-width="2.5"></rect>
    
    <rect x="18" y="24" width="6" height="6" rx="1.5" fill="#6bcb77" stroke="#1a1d2e" stroke-width="2"></rect>
    <path d="M19.5 27 L 21 28.5 L 23 25.5" stroke="#fff" stroke-width="1.8" fill="none" stroke-linecap="round" stroke-linejoin="round"></path>
    <line x1="28" y1="27" x2="46" y2="27" stroke="#1a1d2e" stroke-width="2" stroke-linecap="round"></line>

    <rect x="18" y="34" width="6" height="6" rx="1.5" fill="#6bcb77" stroke="#1a1d2e" stroke-width="2"></rect>
    <path d="M19.5 37 L 21 38.5 L 23 35.5" stroke="#fff" stroke-width="1.8" fill="none" stroke-linecap="round" stroke-linejoin="round"></path>
    <line x1="28" y1="37" x2="46" y2="37" stroke="#1a1d2e" stroke-width="2" stroke-linecap="round"></line>

    <rect x="18" y="44" width="6" height="6" rx="1.5" fill="none" stroke="#1a1d2e" stroke-width="2"></rect>
    <line x1="28" y1="47" x2="42" y2="47" stroke="#1a1d2e" stroke-width="2" stroke-linecap="round"></line>
  </g>
</svg>